<svg width="64" height="64" viewBox="0 0 64 64" fill="none" xmlns="http://www.w3.org/2000/svg">
  <!-- app-tile with hard offset shadow, PostHog style -->
  <rect x="8" y="9" width="48" height="48" rx="13" fill="#1A1A1A"/>
  <rect x="6" y="6" width="48" height="48" rx="13" fill="#EB9D2A" stroke="#1A1A1A" stroke-width="3"/>
  <!-- AR monogram -->
  <path d="M17 41 L23 19 L27 19 L33 41 L28.6 41 L27.4 36 L22.4 36 L21.2 41 Z M23.3 32.2 L26.5 32.2 L24.9 25.2 Z" fill="#1A1A1A"/>
  <path d="M35 41 L35 19 L41.5 19 C45.4 19 47.8 21.3 47.8 25 C47.8 27.7 46.5 29.6 44.3 30.4 L48.4 41 L43.7 41 L40.2 31.3 L39.2 31.3 L39.2 41 Z M39.2 27.6 L41.1 27.6 C42.7 27.6 43.6 26.7 43.6 25.2 C43.6 23.7 42.7 22.8 41.1 22.8 L39.2 22.8 Z" fill="#1A1A1A"/>
</svg>
